:SAMPLES-PER-SECOND 30
:FULLY-SPECIFIED
:DEGREES
643
root  20.0052 38.0343 1.66165 -38.5681 -85.1195 31.6242
RightUpLeg  -17.7245 -10.0462 -5.99149
RightLeg  13.5067 2.71997 0.737608
RightFoot  6.77692 -0.377928 2.65805
RightToes  5.82063e-011 0 -3.6325e-017
Spine  5.32538 -2.18011 2.81959
Spine1  13.4273 -2.37624 -0.203417
HEad  1.97253 -9.88312 -14.3058
LeftShoulder1  -0.132215 3.89122 -27.9598
LeftArm  -17.2818 2.25321 -35.9303
LeftForeArm  84.493 -78.2117 -108.916
LeftHand  -0.0457482 0.545798 1.03478
RightShoulder  -0.540917 -5.19894 25.1292
RightArm  -15.4682 -8.32497 36.1071
RightForeArm  111.96 68.6366 148.031
RightHand  -0.0844128 -1.50966 -2.3385
LeftUpLeg  15.5044 7.02742 -1.22843
LeftLeg  14.4687 3.22659 1.31032
LeftFoot  -21.6681 0.301846 1.91276
LeftToes  1.54581e-011 7.46816e-011 -4.69922e-011
644
root  18.9522 37.9158 1.64203 -10.9308 -86.4305 3.7608
RightUpLeg  -17.8355 -10.5746 -3.30839
RightLeg  17.2359 3.89364 1.20572
RightFoot  5.0145 -0.156689 1.32405
RightToes  5.82063e-011 0 -3.6325e-017
Spine  5.79619 -2.55704 8.39223
Spine1  13.5171 -2.02172 -1.87964
HEad  -1.88074 -7.41738 -11.8964
LeftShoulder1  -0.10889 3.82048 -28.2148
LeftArm  -17.1016 2.83116 -35.7898
LeftForeArm  84.1241 -78.2675 -108.267
LeftHand  -0.0541301 0.386842 1.22923
RightShoulder  -0.540916 -5.19139 25.2721
RightArm  -15.3938 -7.94625 35.2485
RightForeArm  111.391 68.6602 147.933
RightHand  -0.102802 -0.910432 -2.55929
LeftUpLeg  16.0659 5.76582 1.2569
LeftLeg  17.3902 3.98181 1.92092
LeftFoot  -22.9557 0.117321 -0.190169
LeftToes  1.54581e-011 7.46816e-011 -4.69922e-011
645
root  18.0625 37.8489 1.37039 5.15829 -86.0883 -12.074
RightUpLeg  -18.2657 -10.5201 -1.92295
RightLeg  20.4001 3.53675 1.22462
RightFoot  3.30698 0.0330122 -0.0788055
RightToes  5.82063e-011 0 -3.6325e-017
Spine  6.75195 -2.6685 8.99192
Spine1  12.9164 -2.5132 0.388782
HEad  -11.8504 2.58057 -5.5963
LeftShoulder1  -0.102777 3.80308 -28.1749
LeftArm  -17.0121 3.63174 -35.9767
LeftForeArm  83.5588 -78.3108 -107.632
LeftHand  -0.0622968 0.854528 1.49269
RightShoulder  -0.520904 -5.12343 25.3617
RightArm  -14.9518 -7.10469 34.7468
RightForeArm  110.21 68.9962 147.244
RightHand  -0.128253 -1.04186 -3.31046
LeftUpLeg  14.4468 4.6374 3.06269
LeftLeg  22.8195 3.04097 1.69569
LeftFoot  -22.6392 -0.287715 -4.3137
LeftToes  1.54581e-011 7.46816e-011 -4.69922e-011
646
root  17.2096 37.8045 1.11189 8.77245 -84.9669 -15.5818
RightUpLeg  -18.2607 -10.0948 -1.31267
RightLeg  23.2001 2.09316 0.76246
RightFoot  0.923559 0.0711225 -0.597685
RightToes  5.82063e-011 0 -3.6325e-017
Spine  7.6197 -3.00786 8.9838
Spine1  12.5028 -3.16852 2.71847
HEad  -10.6698 3.50646 -6.85355
LeftShoulder1  -0.100087 3.79248 -28.5308
LeftArm  -16.6851 3.88501 -35.8638
LeftForeArm  80.8005 -78.5059 -104.485
LeftHand  -0.0517402 0.619231 1.18979
RightShoulder  -0.524998 -5.14547 25.1843
RightArm  -14.5594 -6.56212 34.9817
RightForeArm  109.635 69.7772 145.824
RightHand  -0.0963953 -0.934371 -2.40257
LeftUpLeg  11.333 4.03658 4.8608
LeftLeg  30.6627 0.630603 0.728099
LeftFoot  -19.9996 -0.540164 -8.99875
LeftToes  1.54581e-011 7.46816e-011 -4.69922e-011
647
root  16.3637 37.8216 0.921757 15.6723 -83.741 -22.1589
RightUpLeg  -17.7247 -10.251 -0.20597
RightLeg  24.5141 1.25236 0.394809
RightFoot  -1.16607 0.053676 -0.682399
RightToes  5.82063e-011 0 -3.6325e-017
Spine  7.77654 -3.42919 10.8024
Spine1  12.3462 -3.3447 2.97994
HEad  -10.8295 3.43712 -6.97882
LeftShoulder1  -0.0461231 3.63622 -28.626
LeftArm  -16.25 3.30443 -35.9171
LeftForeArm  77.2876 -78.6805 -100.71
LeftHand  -0.0528572 0.416395 1.18711
RightShoulder  -0.523035 -5.11832 25.5947
RightArm  -14.9034 -7.00409 34.8595
RightForeArm  110.229 69.8466 145.758
RightHand  -0.0929137 -1.11096 -2.38172
LeftUpLeg  6.39551 4.10308 7.17105
LeftLeg  40.0848 -0.64757 -0.14587
LeftFoot  -13.2924 -0.16711 -10.8281
LeftToes  1.54581e-011 7.46816e-011 -4.69922e-011
648
root  15.5495 37.9217 0.749649 16.1019 -82.1165 -22.3494
RightUpLeg  -16.5703 -11.5116 0.383668
RightLeg  24.9142 1.03425 0.291768
RightFoot  -3.00737 0.0181751 -0.537382
RightToes  5.82063e-011 0 -3.6325e-017
Spine  7.72566 -3.85102 12.165
Spine1  12.4257 -3.5863 3.06749
HEad  -11.0851 1.63943 -5.70724
LeftShoulder1  0.0418416 3.38251 -28.3414
LeftArm  -16.057 2.41346 -36.2357
LeftForeArm  74.4538 -78.8009 -97.4219
LeftHand  -0.0332588 0.808551 0.754954
RightShoulder  -0.565821 -5.238 25.8682
RightArm  -15.2787 -7.75897 34.5862
RightForeArm  110.484 69.4361 146.526
RightHand  -0.103438 -1.01297 -2.62883
LeftUpLeg  0.681723 3.59642 8.43818
LeftLeg  49.1931 -0.362147 -0.0415181
LeftFoot  -4.72559 0.462041 -7.10616
LeftToes  1.54581e-011 7.46816e-011 -4.69922e-011
649
root  14.7976 38.0606 0.579652 13.5188 -81.3533 -19.9788
RightUpLeg  -14.8935 -12.3871 0.306156
RightLeg  24.9261 1.06545 0.348562
RightFoot  -4.44095 0.00792493 -0.625427
RightToes  5.82063e-011 0 -3.6325e-017
Spine  8.53629 -3.9802 12.3532
Spine1  12.0293 -3.58415 3.45279
HEad  -11.1006 0.535492 -5.48853
LeftShoulder1  0.0589403 3.33174 -28.1072
LeftArm  -15.8285 1.41765 -36.8349
LeftForeArm  73.217 -78.8478 -95.862
LeftHand  -0.0498344 1.11841 1.19398
RightShoulder  -0.613392 -5.38875 25.8165
RightArm  -15.53 -8.06879 34.4542
RightForeArm  110.37 69.4189 146.542
RightHand  -0.105412 -0.883032 -2.61424
LeftUpLeg  -3.72408 3.78705 8.96937
LeftLeg  55.9521 -1.10178 -1.27362
LeftFoot  -3.67331 0.451702 -6.3865
LeftToes  1.54581e-011 7.46816e-011 -4.69922e-011
650
root  14.0382 38.2401 0.432432 11.2244 -81.6368 -17.5923
RightUpLeg  -13.3699 -11.9272 -0.0264076
RightLeg  24.4123 0.849528 0.380538
RightFoot  -5.54804 -0.0118203 -0.514889
RightToes  5.82063e-011 0 -3.6325e-017
Spine  9.06846 -3.65808 12.0914
Spine1  11.4573 -3.23606 3.81141
HEad  -11.1249 1.26198 -5.94005
LeftShoulder1  0.017982 3.45179 -28.3517
LeftArm  -15.4108 0.600052 -36.8091
LeftForeArm  71.3445 -78.8816 -93.9301
LeftHand  -0.0616483 0.5148 1.41228
RightShoulder  -0.578977 -5.29609 25.5538
RightArm  -15.6315 -8.2445 34.3482
RightForeArm  109.776 69.4661 146.394
RightHand  -0.142706 -0.991571 -3.66476
LeftUpLeg  -7.84775 4.99259 8.89764
LeftLeg  60.4291 -1.85602 -2.95954
LeftFoot  -4.2794 0.419599 -6.38112
LeftToes  1.54581e-011 7.46816e-011 -4.69922e-011
651
root  13.2394 38.4384 0.353585 7.79173 -81.9656 -13.9931
RightUpLeg  -11.7076 -11.7147 -0.680829
RightLeg  23.6398 0.839069 0.605993
RightFoot  -6.5577 -0.020384 -0.572007
RightToes  5.82063e-011 0 -3.6325e-017
Spine  9.23796 -3.47107 12.2117
Spine1  10.8636 -2.85533 3.30051
HEad  -10.8491 1.35559 -6.13429
LeftShoulder1  0.020467 3.44433 -28.303
LeftArm  -15.2077 0.293711 -36.746
LeftForeArm  69.7806 -78.8989 -92.3299
LeftHand  -0.0431447 0.931287 1.00812
RightShoulder  -0.554615 -5.22574 25.44
RightArm  -15.5341 -8.50767 34.4171
RightForeArm  109.961 69.4965 146.361
RightHand  -0.131534 -0.6896 -3.18788
LeftUpLeg  -11.5364 6.18456 8.17056
LeftLeg  62.4825 -1.88552 -3.32645
LeftFoot  -4.72764 0.367259 -5.85579
LeftToes  1.54581e-011 7.46816e-011 -4.69922e-011
652
root  12.4308 38.6133 0.313756 4.96568 -82.1001 -11.0472
RightUpLeg  -9.91387 -11.6688 -1.27464
RightLeg  22.7616 0.846558 0.856467
RightFoot  -7.52823 -0.0337559 -0.523816
RightToes  5.82063e-011 0 -3.6325e-017
Spine  8.88268 -3.40156 12.6164
Spine1  10.8359 -2.59188 2.402
HEad  -10.4949 0.293644 -6.07806
LeftShoulder1  0.0417654 3.38211 -28.2008
LeftArm  -15.3244 0.0643683 -36.6897
LeftForeArm  68.6069 -78.8986 -91.2684
LeftHand  -0.0522233 0.627779 1.20243
RightShoulder  -0.528704 -5.14454 25.4278
RightArm  -15.6045 -8.62864 34.5111
RightForeArm  110.16 69.5294 146.324
RightHand  -0.13039 -0.362798 -2.98709
LeftUpLeg  -14.7479 7.05865 7.28527
LeftLeg  62.3645 -1.61354 -2.74964
LeftFoot  -5.49076 0.29206 -5.06897
LeftToes  1.54581e-011 7.46816e-011 -4.69922e-011
653
root  11.6375 38.7954 0.273314 2.52226 -82.3621 -8.52588
RightUpLeg  -7.97124 -11.334 -1.78471
RightLeg  21.5356 0.843914 1.08347
RightFoot  -8.19428 -0.0396195 -0.572438
RightToes  5.82063e-011 0 -3.6325e-017
Spine  8.90219 -3.28148 12.3817
Spine1  10.3914 -2.53211 2.2308
HEad  -10.6779 1.07255 -7.03515
LeftShoulder1  0.00606155 3.48608 -28.3414
LeftArm  -15.4037 -0.0563898 -36.3371
LeftForeArm  68.7186 -78.8951 -91.4986
LeftHand  -0.05975 0.519232 1.37207
RightShoulder  -0.511517 -5.09939 25.2471
RightArm  -15.462 -8.41326 34.8833
RightForeArm  110.577 69.5429 146.347
RightHand  -0.11406 -0.522524 -2.67434
LeftUpLeg  -17.2883 7.93693 6.41538
LeftLeg  60.0729 -1.78405 -2.81358
LeftFoot  -5.97597 0.247147 -4.51619
LeftToes  1.54581e-011 7.46816e-011 -4.69922e-011
